<svg version="1.0" xmlns="http://www.w3.org/2000/svg"
 width="512.000000pt" height="512.000000pt" viewBox="0 0 512.000000 512.000000"
 preserveAspectRatio="xMidYMid meet" fill="#000000">
<g transform="translate(0.000000,512.000000) scale(0.100000,-0.100000)"
 stroke="none">
<path d="M2465 5039 c-299 -145 -791 -187 -1287 -108 -37 6 -73 7 -81 2 -8 -4
-168 -195 -356 -423 -225 -274 -341 -423 -341 -438 0 -12 18 -46 41 -74 123
-156 234 -404 278 -623 52 -258 37 -462 -59 -775 -122 -397 -138 -832 -43
-1160 51 -178 153 -351 271 -461 116 -109 222 -166 445 -240 338 -113 690
-271 882 -396 119 -78 221 -167 270 -236 22 -31 48 -59 57 -62 25 -9 53 9 77
49 28 44 141 151 222 208 204 145 531 298 909 425 199 67 270 98 358 157 74
49 184 156 236 229 133 187 204 434 213 742 8 264 -28 517 -112 786 -54 170
-66 242 -72 414 -4 136 -2 178 16 280 45 250 162 511 310 695 37 46 78 -10
-504 694 l-180 218 -45 -6 c-412 -58 -723 -58 -1000 -1 -132 27 -271 73 -347
116 -29 16 -58 29 -65 28 -7 0 -49 -18 -93 -40z m143 -93 c139 -70 370 -127
597 -147 145 -12 441 -7 585 11 41 5 100 12 130 16 l55 6 300 -363 c165 -199
305 -370 312 -380 11 -14 2 -32 -53 -114 -270 -405 -338 -875 -193 -1343 75
-243 107 -426 116 -662 17 -505 -156 -878 -486 -1049 -42 -21 -128 -56 -191
-76 -547 -178 -964 -393 -1164 -599 l-59 -61 -79 78 c-103 101 -283 219 -483
317 -205 101 -339 155 -603 245 -261 89 -339 132 -456 256 -146 154 -216 310
-261 579 -14 82 -16 142 -12 308 6 253 27 381 104 632 20 63 44 156 55 205 25
119 34 341 19 473 -29 251 -141 537 -290 742 -17 24 -31 47 -31 51 0 5 138
176 307 381 168 205 307 375 309 377 2 2 65 -4 141 -13 475 -58 943 -11 1208
122 33 16 64 30 68 31 4 1 29 -10 55 -23z"/>
<path d="M1850 4134 c0 -5 54 -38 120 -73 66 -35 124 -69 130 -76 6 -8 -21
-55 -89 -151 -148 -211 -357 -516 -372 -544 -20 -35 -26 -593 -7 -629 12 -24
410 -321 428 -321 11 0 42 42 256 345 93 132 195 276 227 319 47 65 56 82 45
92 -29 27 -213 154 -224 154 -7 0 -22 -16 -35 -36 -24 -39 -264 -379 -305
-432 l-25 -32 -30 17 c-50 29 -52 41 -46 241 l6 184 98 144 c54 79 150 221
215 315 64 95 121 175 127 179 34 20 264 -46 356 -103 254 -157 403 -394 433
-687 l7 -75 145 0 145 0 -3 85 c-3 98 -38 253 -80 361 -143 358 -477 633 -859
705 -98 18 -663 33 -663 18z"/>
<path d="M2612 2833 c-61 -87 -236 -336 -391 -553 -562 -793 -548 -772 -556
-819 -4 -24 -4 -90 0 -147 l7 -104 921 2 922 3 3 139 c1 77 -2 144 -7 149 -5
5 -305 10 -720 12 -392 1 -715 5 -718 9 -3 3 16 37 43 76 313 446 610 867 757
1073 78 110 96 141 87 152 -13 15 -207 155 -226 162 -6 2 -61 -67 -122 -154z"/>
</g>
</svg>
