<?xml version="1.0" standalone="no"?>
<!DOCTYPE svg PUBLIC "-//W3C//DTD SVG 20010904//EN"
 "http://www.w3.org/TR/2001/REC-SVG-20010904/DTD/svg10.dtd">
<svg class="oir" version="1.0" xmlns="http://www.w3.org/2000/svg"
 width="15.50000pt" height="15.50000pt" viewBox="0 0 1080.000000 1080.000000"
 preserveAspectRatio="xMidYMid meet">

<g transform="translate(0.000000,1080.000000) scale(0.100000,-0.100000)"
fill="#000000" stroke="none">
<path d="M5045 10789 c-1040 -66 -2045 -440 -2890 -1074 -287 -216 -644 -551
-867 -815 -717 -851 -1143 -1844 -1264 -2950 -21 -199 -30 -695 -15 -901 42
-581 159 -1098 368 -1629 612 -1551 1922 -2743 3523 -3205 1250 -360 2562
-262 3751 280 642 293 1266 753 1756 1294 1032 1140 1532 2692 1358 4216 -160
1397 -850 2666 -1940 3566 -577 476 -1290 845 -2015 1043 -552 150 -1183 213
-1765 175z m725 -679 c781 -60 1538 -318 2198 -747 458 -297 898 -711 1226
-1152 510 -686 816 -1483 908 -2361 20 -190 17 -755 -5 -945 -86 -743 -310
-1389 -695 -2007 -351 -562 -851 -1074 -1408 -1441 -625 -412 -1308 -659
-2084 -754 -183 -22 -788 -25 -975 -5 -971 106 -1815 461 -2560 1076 -154 127
-474 447 -601 601 -266 322 -450 608 -630 980 -259 535 -401 1058 -454 1665
-14 160 -14 597 0 760 95 1129 573 2163 1370 2960 981 981 2322 1476 3710
1370z"/>
<path d="M6145 7187 c-223 -75 -536 -368 -958 -899 -138 -173 -285 -374 -405
-550 -47 -70 -87 -127 -88 -125 -1 1 22 72 53 157 30 85 71 216 90 290 33 128
34 142 30 260 -5 146 -21 211 -82 338 -83 173 -214 272 -342 259 -199 -20
-509 -361 -959 -1052 -53 -82 -94 -141 -89 -130 54 140 122 341 147 434 83
309 3 602 -220 813 -233 219 -616 234 -1042 40 -370 -168 -710 -497 -839 -810
-60 -144 -77 -316 -46 -447 20 -86 77 -192 136 -253 68 -71 135 -104 226 -110
l73 -5 0 60 c0 152 100 361 280 588 280 350 743 685 950 685 97 0 105 -42 45
-230 -98 -304 -318 -808 -954 -2193 -271 -590 -254 -547 -249 -633 6 -92 41
-156 129 -238 128 -119 289 -171 381 -124 10 4 83 138 162 296 387 765 929
1654 1369 2246 140 188 356 450 364 442 6 -6 -65 -218 -147 -441 -87 -236
-247 -643 -463 -1182 -80 -200 -141 -363 -136 -363 5 0 0 -9 -10 -19 -42 -42
-36 -172 11 -270 30 -61 145 -173 211 -205 99 -49 209 -53 273 -11 12 8 59 85
105 172 405 774 882 1483 1423 2113 104 121 450 472 483 489 17 8 -73 -178
-345 -721 -203 -403 -408 -823 -457 -933 -293 -663 -411 -1069 -375 -1282 43
-258 284 -453 530 -429 116 12 195 43 307 122 119 85 201 203 210 302 4 50 1
62 -23 100 -16 23 -32 42 -36 42 -5 0 -32 -16 -61 -35 -58 -38 -174 -85 -212
-85 -41 0 -50 35 -36 136 67 478 684 1845 1172 2594 53 81 92 152 98 179 43
195 -196 518 -448 604 -71 25 -183 31 -236 14z"/>
<path d="M7681 6120 c-324 -69 -686 -373 -1005 -843 -271 -401 -438 -833 -438
-1137 0 -145 19 -227 79 -350 39 -78 62 -109 132 -180 96 -95 166 -141 280
-181 321 -113 724 -14 1111 272 326 240 705 660 1033 1142 72 105 73 112 40
184 -25 54 -117 113 -177 113 -31 0 -39 -6 -67 -47 -339 -501 -844 -952 -1251
-1118 -192 -79 -360 -97 -439 -47 -39 24 -73 79 -83 133 l-6 35 87 34 c182 69
442 223 633 377 125 100 341 313 433 428 349 433 407 753 182 1002 -111 123
-238 183 -400 189 -55 2 -120 -1 -144 -6z m266 -486 c17 -46 -52 -214 -147
-354 -117 -172 -306 -382 -473 -526 -105 -90 -306 -234 -328 -234 -15 0 -11
16 35 118 199 443 547 887 777 992 55 24 127 27 136 4z"/>
<path d="M8865 4112 c-191 -66 -307 -237 -293 -431 12 -169 125 -280 301 -296
187 -17 363 80 441 245 39 83 48 199 21 285 -20 61 -75 131 -131 165 -80 50
-243 65 -339 32z"/>
</g>
</svg>
